TITLE ""
FILE "Disc2Track09.mp3" MP3
  TRACK 01 AUDIO
    TITLE "Disc2Track09_01"
    INDEX 01 00:00:00
  TRACK 02 AUDIO
    TITLE "Disc2Track09_02"
    INDEX 01 00:01:08
  TRACK 03 AUDIO
    TITLE "Disc2Track09_03"
    INDEX 01 00:03:16
  TRACK 04 AUDIO
    TITLE "Disc2Track09_04"
    INDEX 01 00:04:32
  TRACK 05 AUDIO
    TITLE "Disc2Track09_05"
    INDEX 01 00:07:63
  TRACK 06 AUDIO
    TITLE "Disc2Track09_06"
    INDEX 01 00:08:16
  TRACK 07 AUDIO
    TITLE "Disc2Track09_07"
    INDEX 01 00:09:46
  TRACK 08 AUDIO
    TITLE "Disc2Track09_08"
    INDEX 01 00:10:66
  TRACK 09 AUDIO
    TITLE "Disc2Track09_09"
    INDEX 01 00:12:29
  TRACK 10 AUDIO
    TITLE "Disc2Track09_10"
    INDEX 01 00:14:46
  TRACK 11 AUDIO
    TITLE "Disc2Track09_11"
    INDEX 01 00:14:73
  TRACK 12 AUDIO
    TITLE "Disc2Track09_12"
    INDEX 01 00:16:13
  TRACK 13 AUDIO
    TITLE "Disc2Track09_13"
    INDEX 01 00:17:22
  TRACK 14 AUDIO
    TITLE "Disc2Track09_14"
    INDEX 01 00:18:38
  TRACK 15 AUDIO
    TITLE "Disc2Track09_15"
    INDEX 01 00:23:47
  TRACK 16 AUDIO
    TITLE "Disc2Track09_16"
    INDEX 01 00:24:03
  TRACK 17 AUDIO
    TITLE "Disc2Track09_17"
    INDEX 01 00:25:18
  TRACK 18 AUDIO
    TITLE "Disc2Track09_18"
    INDEX 01 00:26:16
  TRACK 19 AUDIO
    TITLE "Disc2Track09_19"
    INDEX 01 00:27:31
  TRACK 20 AUDIO
    TITLE "Disc2Track09_20"
    INDEX 01 00:27:62
  TRACK 21 AUDIO
    TITLE "Disc2Track09_21"
    INDEX 01 00:29:04
  TRACK 22 AUDIO
    TITLE "Disc2Track09_22"
    INDEX 01 00:30:13
  TRACK 23 AUDIO
    TITLE "Disc2Track09_23"
    INDEX 01 00:31:32
  TRACK 24 AUDIO
    TITLE "Disc2Track09_24"
    INDEX 01 00:31:72
  TRACK 25 AUDIO
    TITLE "Disc2Track09_25"
    INDEX 01 00:33:06
  TRACK 26 AUDIO
    TITLE "Disc2Track09_26"
    INDEX 01 00:36:43
  TRACK 27 AUDIO
    TITLE "Disc2Track09_27"
    INDEX 01 00:37:51
  TRACK 28 AUDIO
    TITLE "Disc2Track09_28"
    INDEX 01 00:41:39
  TRACK 29 AUDIO
    TITLE "Disc2Track09_29"
    INDEX 01 00:41:68
  TRACK 30 AUDIO
    TITLE "Disc2Track09_30"
    INDEX 01 00:43:12
  TRACK 31 AUDIO
    TITLE "Disc2Track09_31"
    INDEX 01 00:46:14
  TRACK 32 AUDIO
    TITLE "Disc2Track09_32"
    INDEX 01 00:47:33
  TRACK 33 AUDIO
    TITLE "Disc2Track09_33"
    INDEX 01 00:47:63
  TRACK 34 AUDIO
    TITLE "Disc2Track09_34"
    INDEX 01 00:48:74
  TRACK 35 AUDIO
    TITLE "Disc2Track09_35"
    INDEX 01 00:49:75
  TRACK 36 AUDIO
    TITLE "Disc2Track09_36"
    INDEX 01 00:51:10
  TRACK 37 AUDIO
    TITLE "Disc2Track09_37"
    INDEX 01 00:51:51
  TRACK 38 AUDIO
    TITLE "Disc2Track09_38"
    INDEX 01 00:52:74
  TRACK 39 AUDIO
    TITLE "Disc2Track09_39"
    INDEX 01 00:55:15
  TRACK 40 AUDIO
    TITLE "Disc2Track09_40"
    INDEX 01 00:56:34
  TRACK 41 AUDIO
    TITLE "Disc2Track09_41"
    INDEX 01 01:00:32
  TRACK 42 AUDIO
    TITLE "Disc2Track09_42"
    INDEX 01 01:00:63
  TRACK 43 AUDIO
    TITLE "Disc2Track09_43"
    INDEX 01 01:02:11
  TRACK 44 AUDIO
    TITLE "Disc2Track09_44"
    INDEX 01 01:05:25
  TRACK 45 AUDIO
    TITLE "Disc2Track09_45"
    INDEX 01 01:06:44
  TRACK 46 AUDIO
    TITLE "Disc2Track09_46"
    INDEX 01 01:11:63
  TRACK 47 AUDIO
    TITLE "Disc2Track09_47"
    INDEX 01 01:12:20
  TRACK 48 AUDIO
    TITLE "Disc2Track09_48"
    INDEX 01 01:13:45
  TRACK 49 AUDIO
    TITLE "Disc2Track09_49"
    INDEX 01 01:15:02
  TRACK 50 AUDIO
    TITLE "Disc2Track09_50"
    INDEX 01 01:16:21
  TRACK 51 AUDIO
    TITLE "Disc2Track09_51"
    INDEX 01 01:22:59
  TRACK 52 AUDIO
    TITLE "Disc2Track09_52"
    INDEX 01 01:23:17
  TRACK 53 AUDIO
    TITLE "Disc2Track09_53"
    INDEX 01 01:24:52
  TRACK 54 AUDIO
    TITLE "Disc2Track09_54"
    INDEX 01 01:25:58
  TRACK 55 AUDIO
    TITLE "Disc2Track09_55"
    INDEX 01 01:27:17
  TRACK 56 AUDIO
    TITLE "Disc2Track09_56"
    INDEX 01 01:29:36
